:SAMPLES-PER-SECOND 30
:FULLY-SPECIFIED
:DEGREES
646
root  -24.6813 39.1129 2.67608 17.5895 -88.9885 -25.8173
RightUpLeg  -7.37831 -8.00993 -1.34167
RightLeg  24.6524 2.063 0.786185
RightFoot  -7.64615 0.0294369 -2.51363
RightToes  6.35927e-011 1.30204e-014 -6.03759e-014
Spine  7.97668 -1.75513 12.104
Spine1  13.5377 0.721773 -2.6068
HEad  -15.8884 0.708856 -4.86366
LeftShoulder1  0.0330688 3.41197 -29.5749
LeftArm  -2.46128 -7.23725 -33.3368
LeftForeArm  33.8981 -76.5785 -54.892
LeftHand  -0.145332 0.72718 3.60214
RightShoulder  -0.381517 -4.66133 25.9595
RightArm  -16.5168 -9.82417 30.0812
RightForeArm  101.836 73.4612 136.301
RightHand  -0.0452684 -0.0711181 -0.986813
LeftUpLeg  -12.3765 2.912 4.61172
LeftLeg  59.7804 -1.36234 -1.98828
LeftFoot  -1.79265 0.501874 -5.86178
LeftToes  -7.16024e-010 4.79583e-011 -5.98286e-011
647
root  -25.8256 39.3484 2.58243 -12.7948 -88.8985 4.55804
RightUpLeg  -4.32214 -9.12554 -2.22075
RightLeg  22.7654 3.05835 1.18596
RightFoot  -8.89876 -0.00550559 -2.56879
RightToes  6.35927e-011 1.30204e-014 -6.03759e-014
Spine  7.11961 -1.46197 11.7133
Spine1  13.6401 0.910624 -2.9254
HEad  -15.3954 0.597229 -5.08268
LeftShoulder1  0.0376955 3.3981 -29.5213
LeftArm  -2.82169 -7.56731 -32.9901
LeftForeArm  34.4907 -76.708 -55.8301
LeftHand  -0.141294 0.693511 3.64203
RightShoulder  -0.357339 -4.59649 25.6613
RightArm  -16.3686 -9.36327 30.3949
RightForeArm  101.642 73.5039 136.145
RightHand  -0.0440475 -0.085402 -0.960256
LeftUpLeg  -14.8963 3.09824 3.50153
LeftLeg  54.6232 -1.38323 -1.6161
LeftFoot  -3.2501 0.395241 -5.33379
LeftToes  -7.16024e-010 4.79583e-011 -5.98286e-011
648
root  -26.9197 39.5121 2.48793 -25.0781 -88.9995 16.6396
RightUpLeg  -1.14538 -9.6015 -2.72647
RightLeg  20.775 3.6568 1.37343
RightFoot  -9.96625 -0.0340615 -2.78649
RightToes  6.35927e-011 1.30204e-014 -6.03759e-014
Spine  6.99202 -1.19018 11.4346
Spine1  13.1981 1.128 -3.37787
HEad  -15.0449 0.693977 -5.21373
LeftShoulder1  0.0320899 3.41328 -29.2869
LeftArm  -3.42633 -7.7727 -32.7764
LeftForeArm  35.6696 -76.8999 -57.1811
LeftHand  -0.139531 0.817628 3.58827
RightShoulder  -0.352616 -4.58525 25.555
RightArm  -16.2058 -8.52466 30.7306
RightForeArm  101.191 73.5604 135.908
RightHand  -0.0539639 -0.104902 -1.18119
LeftUpLeg  -16.3428 3.85054 2.95157
LeftLeg  47.2433 -1.5335 -1.36183
LeftFoot  -3.90557 0.41625 -6.02696
LeftToes  -7.16024e-010 4.79583e-011 -5.98286e-011
649
root  -27.9845 39.6119 2.43238 -18.5545 -89.1211 10.0098
RightUpLeg  1.82454 -9.85862 -2.9128
RightLeg  18.8073 3.9427 1.47333
RightFoot  -10.7282 -0.0561156 -3.05959
RightToes  6.35927e-011 1.30204e-014 -6.03759e-014
Spine  6.77601 -1.043 11.4662
Spine1  12.9069 1.2122 -3.78482
HEad  -15.0219 0.936145 -5.22722
LeftShoulder1  0.0213744 3.44308 -29.0597
LeftArm  -4.18243 -8.01519 -32.6643
LeftForeArm  36.6251 -77.0407 -58.2112
LeftHand  -0.138782 0.926395 3.51433
RightShoulder  -0.353851 -4.58956 25.5417
RightArm  -16.1596 -7.47121 31.182
RightForeArm  100.96 73.5977 135.761
RightHand  -0.0628189 -0.188396 -1.3898
LeftUpLeg  -17.0178 4.75004 2.7508
LeftLeg  38.0893 -1.74548 -1.11036
LeftFoot  -3.03598 0.500965 -6.64955
LeftToes  -7.16024e-010 4.79583e-011 -5.98286e-011
650
root  -29.0492 39.6856 2.41465 -1.81367 -89.0643 -6.65143
RightUpLeg  4.82812 -9.96552 -3.05244
RightLeg  16.3859 4.13288 1.57766
RightFoot  -11.4965 -0.0812602 -2.91123
RightToes  6.35927e-011 1.30204e-014 -6.03759e-014
Spine  5.97152 -0.870977 11.3609
Spine1  13.2777 1.18302 -3.86997
HEad  -15.2764 0.967116 -5.14167
LeftShoulder1  0.0357598 3.40221 -29.0386
LeftArm  -4.84978 -8.41669 -32.6753
LeftForeArm  36.8768 -77.0788 -58.5091
LeftHand  -0.13805 0.905193 3.5036
RightShoulder  -0.344145 -4.56407 25.3903
RightArm  -16.3959 -6.62809 31.6489
RightForeArm  101.16 73.5709 135.872
RightHand  -0.0649708 -0.277747 -1.44374
LeftUpLeg  -16.9441 5.43595 2.5431
LeftLeg  27.5944 -1.90201 -0.732397
LeftFoot  -2.33076 0.54459 -6.73162
LeftToes  -7.16024e-010 4.79583e-011 -5.98286e-011
651
root  -30.1157 39.7612 2.40419 9.55203 -89.0999 -17.8373
RightUpLeg  8.07443 -9.80575 -3.21939
RightLeg  13.2033 4.37342 1.551
RightFoot  -12.2094 -0.0996053 -2.24521
RightToes  6.35927e-011 1.30204e-014 -6.03759e-014
Spine  4.96697 -0.553934 10.7396
Spine1  13.9305 1.2195 -3.77649
HEad  -15.4248 0.805942 -4.92869
LeftShoulder1  0.0689835 3.30784 -29.0669
LeftArm  -5.33386 -8.61589 -32.7926
LeftForeArm  37.2296 -77.117 -58.7586
LeftHand  -0.138299 0.804434 3.47312
RightShoulder  -0.338756 -4.55222 25.2346
RightArm  -16.7256 -6.09018 31.9665
RightForeArm  101.378 73.5466 135.978
RightHand  -0.0657484 -0.270843 -1.4149
LeftUpLeg  -16.1246 5.68054 2.36344
LeftLeg  16.124 -1.93215 -0.418765
LeftFoot  -2.29505 0.563211 -6.93918
LeftToes  -7.16024e-010 4.79583e-011 -5.98286e-011
652
root  -31.1928 39.775 2.40407 37.8913 -89.3036 -46.0238
RightUpLeg  11.046 -9.49808 -3.1884
RightLeg  10.5033 4.61002 1.33524
RightFoot  -12.8274 -0.10944 -1.72422
RightToes  6.35927e-011 1.30204e-014 -6.03759e-014
Spine  4.34222 -0.229388 9.94916
Spine1  14.2301 1.33338 -3.65441
HEad  -15.3795 0.849727 -4.51515
LeftShoulder1  0.0766907 3.28529 -28.9456
LeftArm  -5.74863 -8.32661 -32.8146
LeftForeArm  38.6582 -77.2846 -59.9893
LeftHand  -0.139689 0.677639 3.38961
RightShoulder  -0.353008 -4.5939 25.3355
RightArm  -16.8407 -5.5999 32.1633
RightForeArm  101.297 73.589 135.839
RightHand  -0.0653871 -0.178807 -1.40323
LeftUpLeg  -14.9554 4.96504 2.73242
LeftLeg  5.21842 -1.43506 -0.342789
LeftFoot  -1.68351 0.607752 -7.07274
LeftToes  -7.16024e-010 4.79583e-011 -5.98286e-011
653
root  -32.3199 39.6387 2.44602 81.8349 -89.0402 -89.9863
RightUpLeg  13.3161 -9.20666 -2.87446
RightLeg  9.73587 4.68073 1.06914
RightFoot  -14.0339 -0.133428 -1.62367
RightToes  6.35927e-011 1.30204e-014 -6.03759e-014
Spine  4.10768 -0.0729741 9.36827
Spine1  14.214 1.32217 -3.32387
HEad  -15.4329 1.16163 -3.87084
LeftShoulder1  0.051028 3.3577 -28.7773
LeftArm  -6.14916 -7.90641 -32.588
LeftForeArm  40.639 -77.5198 -61.9542
LeftHand  -0.143592 0.54228 3.40615
RightShoulder  -0.366361 -4.62848 25.554
RightArm  -16.7682 -5.15107 32.4484
RightForeArm  101.252 73.6241 135.727
RightHand  -0.0641418 -0.159995 -1.4507
LeftUpLeg  -14.4087 4.47231 3.29315
LeftLeg  -1.54664 -1.56289 -0.206345
LeftFoot  -1.1113 0.619575 -6.83986
LeftToes  -7.16024e-010 4.79583e-011 -5.98286e-011
654
root  -33.5015 39.382 2.54229 85.9759 -88.4334 -94.3452
RightUpLeg  15.4159 -9.00055 -2.57517
RightLeg  10.0784 4.63506 0.813948
RightFoot  -16.1467 -0.156448 -1.17007
RightToes  6.35927e-011 1.30204e-014 -6.03759e-014
Spine  3.91286 -0.0664816 8.84315
Spine1  14.433 1.16314 -2.86381
HEad  -15.5866 1.32538 -3.10545
LeftShoulder1  0.0309957 3.41491 -28.7191
LeftArm  -6.3931 -7.88019 -32.2808
LeftForeArm  41.5741 -77.6372 -63.1153
LeftHand  -0.154595 0.437137 3.60672
RightShoulder  -0.358806 -4.60349 25.5892
RightArm  -16.7363 -5.12352 32.8636
RightForeArm  101.684 73.5382 136.05
RightHand  -0.0624731 -0.308753 -1.54443
LeftUpLeg  -14.9894 4.57446 3.5118
LeftLeg  -1.92294 -2.01042 -0.0738212
LeftFoot  -1.56072 0.550095 -6.29664
LeftToes  -7.16024e-010 4.79583e-011 -5.98286e-011
655
root  -34.7402 39.0564 2.69925 83.5334 -87.9752 -92.2054
RightUpLeg  17.649 -8.90141 -2.6018
RightLeg  10.6495 4.67729 0.603617
RightFoot  -18.7087 -0.130569 -0.0643481
RightToes  6.35927e-011 1.30204e-014 -6.03759e-014
Spine  3.50467 -0.0480635 8.3929
Spine1  15.0106 1.12984 -2.68933
HEad  -15.4559 1.15929 -2.3897
LeftShoulder1  0.0258986 3.42954 -28.7065
LeftArm  -6.36991 -8.17315 -32.1065
LeftForeArm  41.2381 -77.6148 -63.0046
LeftHand  -0.163319 0.383112 3.77877
RightShoulder  -0.349902 -4.57732 25.5373
RightArm  -16.7094 -5.66563 33.1217
RightForeArm  102.373 73.3623 136.67
RightHand  -0.0613356 -0.456919 -1.58851
LeftUpLeg  -15.9061 4.53651 3.40024
LeftLeg  1.8342 -1.29804 -0.0236449
LeftFoot  -0.876114 0.464016 -5.03347
LeftToes  -7.16024e-010 4.79583e-011 -5.98286e-011
656
root  -36.0592 38.7218 2.90887 90.5526 -87.8765 -99.5433
RightUpLeg  19.8274 -8.87444 -3.25796
RightLeg  11.5741 4.946 0.382245
RightFoot  -20.7844 -0.0707334 0.868753
RightToes  6.35927e-011 1.30204e-014 -6.03759e-014
Spine  2.9857 0.123666 7.76241
Spine1  15.5139 1.3437 -2.81122
HEad  -15.0074 0.981256 -1.82838
LeftShoulder1  -0.00223079 3.51023 -28.6961
LeftArm  -6.18592 -8.29014 -31.8915
LeftForeArm  41.3446 -77.6336 -63.2365
LeftHand  -0.159961 0.370508 3.69151
RightShoulder  -0.361711 -4.60883 25.6975
RightArm  -16.4287 -6.45139 32.9962
RightForeArm  102.694 73.2513 137.036
RightHand  -0.0614358 -0.365683 -1.5035
LeftUpLeg  -16.6319 4.45408 2.96091
LeftLeg  6.7703 0.118087 0.230612
LeftFoot  3.08146 0.302706 -2.63024
LeftToes  -7.16024e-010 4.79583e-011 -5.98286e-011
657
root  -37.4048 38.45 3.13324 109.161 -88.4009 -118.552
RightUpLeg  21.7881 -8.40868 -4.61956
RightLeg  13.0372 5.09553 0.0600715
RightFoot  -22.1889 0.0371046 1.95535
RightToes  6.35927e-011 1.30204e-014 -6.03759e-014
Spine  2.82475 0.359268 6.13844
Spine1  15.7035 1.57426 -2.77167
HEad  -14.7075 0.955418 -1.46387
LeftShoulder1  -0.0614467 3.67921 -28.8591
LeftArm  -5.97587 -8.08442 -31.3247
LeftForeArm  42.7175 -77.7824 -64.7582
LeftHand  -0.149438 0.422157 3.47587
RightShoulder  -0.381739 -4.65947 26.0334
RightArm  -15.8919 -7.251 32.7358
RightForeArm  102.505 73.2963 136.879
RightHand  -0.062829 -0.0889966 -1.39
LeftUpLeg  -17.3682 4.51447 1.95497
LeftLeg  12.0086 0.847109 0.447591
LeftFoot  8.18362 -0.13405 0.50164
LeftToes  -7.16024e-010 4.79583e-011 -5.98286e-011
658
root  -38.7013 38.2396 3.36657 154.213 -89.0576 -164.165
RightUpLeg  23.2602 -6.34945 -5.98786
RightLeg  15.5323 4.22775 0.0698801
RightFoot  -23.5394 0.413833 5.29527
RightToes  6.35927e-011 1.30204e-014 -6.03759e-014
Spine  3.27922 0.54729 3.8007
Spine1  15.6871 1.66781 -2.57272
HEad  -14.733 0.778879 -1.35434
LeftShoulder1  -0.106944 3.80592 -29.2668
LeftArm  -5.70796 -7.84702 -30.5724
LeftForeArm  43.667 -77.8793 -65.8212
LeftHand  -0.144195 0.549343 3.42597
RightShoulder  -0.39838 -4.70005 26.3296
RightArm  -15.3903 -8.19329 32.7722
RightForeArm  102.181 73.4713 136.324
RightHand  -0.0657155 0.119985 -1.4076
LeftUpLeg  -18.0401 5.13035 0.353211
LeftLeg  17.6549 0.242624 0.404161
LeftFoot  9.53888 -0.6424 3.21912
LeftToes  -7.16024e-010 4.79583e-011 -5.98286e-011
659
root  -39.874 38.1395 3.63802 -143.775 -88.7227 133.408
RightUpLeg  23.1703 -3.43743 -7.29355
RightLeg  20.1827 2.79827 0.92531
RightFoot  -23.4477 1.00225 11.0787
RightToes  6.35927e-011 1.30204e-014 -6.03759e-014
Spine  3.98644 0.714753 1.98761
Spine1  15.6758 1.82395 -3.03854
HEad  -14.7174 0.341658 -1.57648
LeftShoulder1  -0.112191 3.81737 -29.6507
LeftArm  -5.38371 -7.65743 -30.1473
LeftForeArm  42.5427 -77.7638 -64.5692
LeftHand  -0.144477 0.646347 3.49078
RightShoulder  -0.427423 -4.77766 26.6223
RightArm  -15.0289 -9.18199 33.1084
RightForeArm  101.859 73.7494 135.441
RightHand  -0.0710682 0.198728 -1.50802
LeftUpLeg  -17.9813 5.63646 -1.23674
LeftLeg  22.1524 -0.0067279 0.335941
LeftFoot  6.5972 -0.79558 4.77807
LeftToes  -7.16024e-010 4.79583e-011 -5.98286e-011
